PathFileType	3	(X/Y/Z)	D:\minhoCalibration\240510\subject2_KPNP\preferred\preferred18.trc
DataRate	CameraRate	NumFrames	NumMarkers	Units	OrigDataRate	OrigDataStartFrame	OrigNumFrames
200.0	200.0	33	10	mm	200.0	390	174	
Frame#	Time	Left_Ankle_Outer1			Left_Ankle_Inner1			Left_Knee_Outer1			Left_Knee_Inner1			Left_Wrist1			Right_Wrist1			Right_Knee_Inner1			Right_Knee_Outer1			Right_Ankle_Inner1			Right_Ankle_Outer1			
		X1	Y1	Z1	X2	Y2	Z2	X3	Y3	Z3	X4	Y4	Z4	X5	Y5	Z5	X6	Y6	Z6	X7	Y7	Z7	X8	Y8	Z8	X9	Y9	Z9	X10	Y10	Z10	
390	1.94	-649.76843	97.352562	-696.87628	-664.62988	98.989273	-645.74304	-491.34921	513.19641	-699.27258	-534.67535	499.35535	-614.87378	-517.05511	970.93951	-782.6748	-722.42358	1096.1716	-533.29053	-576.39545	709.9068	-230.66647	-655.0376	758.32611	-204.71835	-740.47302	322.7829	-202.3212	-829.06537	360.91171	-169.72125
391	1.945	-649.60022	96.803535	-697.58661	-664.60773	98.908714	-645.9234	-491.47339	512.92334	-698.47211	-537.01611	499.12067	-614.53522	-515.69171	971.76056	-782.0694	-724.96002	1093.8153	-534.3299	-583.26947	703.28894	-234.06444	-662.77411	750.72668	-209.30544	-747.67249	315.05545	-219.07486	-837.39166	352.14087	-188.76476
392	1.95	-649.58344	96.427238	-698.08453	-664.59149	98.718597	-646.03198	-491.03198	513.07593	-697.98901	-539.90668	498.78421	-615.08301	-514.25067	972.7583	-781.37994	-727.24445	1091.3965	-535.07288	-590.3056	696.61951	-237.65819	-670.52606	743.43945	-213.84425	-755.02026	307.68765	-235.79672	-843.99402	346.04333	-201.41394
393	1.955	-649.60388	96.003647	-698.40753	-665.40118	98.584068	-644.94568	-491.77451	512.40045	-696.94281	-542.43097	498.58612	-615.34424	-512.89435	973.73438	-780.5423	-729.78418	1088.9261	-535.99652	-597.45056	689.9834	-241.43533	-678.30127	736.28546	-218.54716	-762.13489	300.83325	-252.53999	-852.95709	336.29752	-223.40601
394	1.96	-649.65796	95.728767	-698.51538	-664.56604	99.961983	-642.3418	-492.06387	512.23175	-696.32275	-544.7583	498.46631	-615.7334	-511.49387	974.80756	-779.55035	-733.10376	1086.4946	-537.73114	-604.66638	683.26556	-245.51929	-686.03638	729.42474	-223.94817	-768.73962	294.32727	-269.6265	-861.09235	329.36798	-243.00531
395	1.965	-649.78424	95.483818	-698.57172	-664.90833	99.364418	-642.97333	-492.33536	512.20404	-695.9491	-546.29645	498.36749	-615.62958	-510.11389	975.91278	-778.47156	-735.98535	1083.7943	-539.26324	-612.00446	676.57098	-249.83928	-693.41644	722.57574	-229.79457	-775.81232	288.18222	-286.12299	-865.90552	324.27191	-254.47229
396	1.97	-649.93982	95.323608	-698.71906	-664.79132	98.338211	-645.71313	-492.17743	512.68323	-696.22119	-548.09448	498.41803	-616.23633	-508.76892	977.0871	-777.39044	-738.98743	1081.2632	-540.8714	-619.52338	669.88245	-254.27728	-701.51392	713.52087	-239.89218	-782.39313	282.17496	-302.75653	-875.02759	316.06104	-276.64221
397	1.975	-650.04016	95.0522	-698.95001	-664.49182	98.608971	-643.71228	-493.52682	512.39154	-695.80927	-549.63562	498.55182	-616.76385	-507.44141	978.24762	-776.13019	-742.01862	1078.703	-542.51819	-627.10083	663.10919	-259.10355	-709.55853	709.15356	-239.24724	-788.55371	276.83905	-319.43988	-881.4198	310.0921	-295.88388
398	1.98	-650.10559	94.856911	-699.34534	-664.60931	98.464828	-643.82135	-494.28888	512.62769	-696.08588	-550.74121	498.58145	-617.19586	-506.38712	979.29987	-774.67725	-745.14722	1076.2238	-544.31122	-634.7572	656.38605	-264.17957	-717.00983	702.31897	-246.18806	-794.29047	271.66748	-336.22455	-888.60681	304.31644	-312.49106
399	1.985	-650.02753	94.46019	-699.86218	-664.93604	97.978119	-644.29504	-495.48282	512.72241	-696.41785	-551.52313	498.69736	-617.51135	-505.51981	980.22357	-773.05627	-748.1972	1073.8077	-546.24561	-642.54126	649.72162	-269.49081	-725.18549	696.01172	-250.37787	-799.9317	266.82486	-352.54932	-894.07538	299.43176	-333.53351
400	1.99	-650.00189	94.029144	-700.3905	-665.06061	97.750519	-644.32111	-496.25397	512.94275	-696.89185	-552.11633	498.72467	-617.77258	-504.61954	981.1532	-771.55249	-751.23792	1071.4807	-548.18439	-650.38855	643.17249	-275.05792	-732.33997	689.05139	-260.23901	-805.32288	262.45914	-368.74646	-901.01599	294.67123	-351.27686
401	1.995	-649.90302	93.538475	-700.90912	-665.46198	96.723251	-646.104	-497.12363	513.00024	-697.32965	-552.58429	498.65903	-617.98285	-503.54642	982.02112	-770.14404	-754.32745	1069.3287	-550.26483	-658.22479	636.79883	-280.84848	-740.59131	683.43146	-264.76706	-810.23138	257.87796	-384.34818	-904.74756	291.35861	-361.57272
402	2	-649.76648	93.160217	-701.39954	-665.55591	96.344154	-646.55603	-497.79144	513.08392	-697.63849	-552.98474	498.50418	-618.11517	-502.74933	982.80927	-768.86584	-757.3324	1067.2751	-552.32892	-666.04926	630.57831	-286.95239	-748.58124	677.354	-269.95755	-815.44916	254.07597	-400.09845	-910.09033	287.32007	-379.6232
403	2.005	-649.6936	92.900108	-701.9516	-665.61847	96.09304	-646.85449	-498.25208	513.05054	-697.80853	-553.38013	498.23291	-618.22626	-502.18057	983.40735	-767.15161	-760.34924	1065.4071	-554.47723	-673.92017	624.56091	-293.13461	-756.23956	671.27911	-278.46149	-820.59149	250.12595	-414.88995	-917.44232	281.41571	-403.28662
404	2.01	-649.60181	92.581375	-702.32642	-665.37421	96.031982	-647.36493	-498.52917	512.88562	-697.78754	-553.69458	497.99323	-618.27631	-501.7265	984.05072	-765.74347	-763.28217	1063.6698	-556.55811	-681.67926	618.66669	-299.63535	-764.27979	665.71277	-284.05011	-821.81171	247.95285	-430.69809	-922.16058	278.38797	-419.64597
405	2.015	-649.54303	92.314606	-702.5567	-665.40839	95.883781	-647.13495	-498.5097	512.72327	-697.58179	-554.04962	497.67001	-618.26428	-501.33746	984.10522	-764.3587	-765.85181	1062.0251	-558.47717	-689.31342	612.91693	-306.31744	-772.31696	659.93298	-290.81345	-825.80145	244.35136	-445.03415	-927.45618	275.55557	-439.30981
406	2.02	-649.50757	92.082962	-702.60492	-665.46655	95.79113	-647.18054	-498.38562	512.45062	-697.16193	-554.47778	497.40475	-618.14844	-501.06735	984.50739	-762.87152	-768.64313	1060.4686	-560.38666	-696.85535	607.33838	-313.10382	-779.8172	654.58496	-298.38232	-833.08392	239.44975	-458.5593	-931.15778	271.85172	-454.88876
407	2.025	-649.4978	91.930115	-702.57654	-665.81049	95.41584	-647.30859	-498.10083	512.16003	-696.54413	-554.93805	497.0726	-617.99304	-501.09531	984.40863	-761.87006	-772.17255	1059.1248	-562.9436	-704.3078	601.90417	-320.09998	-787.33624	649.61676	-306.68152	-837.72827	235.60603	-472.12988	-935.65137	268.82895	-471.681
408	2.03	-649.48163	91.837357	-702.46149	-665.89307	95.495407	-646.63739	-497.73471	511.84338	-695.78668	-555.30103	496.90842	-617.74573	-501.45404	984.85773	-761.25214	-775.08411	1057.6832	-564.97375	-711.74426	596.55829	-327.20465	-795.04242	644.0351	-314.4462	-839.63519	234.29869	-485.24753	-940.25146	265.76694	-487.75214
409	2.035	-649.52362	91.77282	-702.36212	-665.60138	95.517349	-646.83044	-497.14606	511.60599	-694.91333	-555.6792	496.81821	-617.43445	-501.64325	985.1601	-760.09711	-777.85492	1056.0295	-566.95648	-718.93835	591.32581	-334.49295	-801.22748	636.34351	-330.95358	-845.23816	230.40894	-498.88657	-944.48993	262.96805	-503.40326
410	2.04	-649.49054	91.728371	-702.25409	-665.86871	95.131195	-646.92963	-496.67587	511.38586	-693.93506	-555.92969	496.78458	-616.98724	-501.93454	985.16827	-758.86737	-780.68854	1054.3477	-569.08093	-726.2052	586.28851	-342.05612	-809.11206	631.36133	-338.18521	-851.1687	225.80374	-513.51776	-948.65137	260.14377	-518.60724
411	2.045	-649.41431	91.705688	-702.19751	-665.57611	95.280891	-646.82123	-496.25842	511.2366	-692.8739	-556.11609	496.75986	-616.61139	-502.31616	985.31189	-757.76556	-783.47003	1052.5812	-571.1181	-733.25214	581.25348	-349.79922	-816.26288	625.84845	-347.01923	-856.13	222.51408	-526.50098	-953.24786	258.10236	-534.41742
412	2.05	-649.2854	91.620682	-702.2049	-665.90186	95.06234	-646.74854	-495.92908	511.22583	-691.80792	-556.26202	496.84174	-616.19354	-502.28714	985.43628	-755.75159	-786.3092	1050.8053	-573.27277	-740.38623	576.34021	-357.86816	-822.85248	623.07361	-352.17487	-860.40271	219.43184	-539.82556	-957.58728	255.15327	-548.04596
413	2.055	-649.12476	91.588264	-702.29089	-665.88757	95.046989	-646.76385	-495.64694	511.34415	-690.90332	-556.36633	496.92169	-615.80005	-503.04352	985.54675	-754.77618	-789.18488	1048.9901	-575.35815	-747.39917	571.57281	-365.99387	-830.21698	617.26678	-363.27905	-865.02148	216.35242	-552.46234	-962.06165	252.51802	-562.20386
414	2.06	-648.97583	91.577118	-702.43915	-665.30255	94.80455	-648.13965	-495.67346	511.45053	-690.03943	-556.45465	497.06546	-615.44562	-504.20953	985.58069	-754.15668	-792.15051	1047.1128	-577.57788	-754.27423	566.84802	-374.42542	-836.86511	613.49304	-368.38934	-869.60028	213.44502	-565.16235	-966.27765	250.01285	-576.27087
415	2.065	-648.76917	91.582504	-702.72034	-665.84161	95.005219	-647.12653	-495.59204	511.70493	-689.30829	-556.5946	497.19406	-615.11713	-507.81818	984.36035	-754.80609	-795.45831	1045.5042	-580.07947	-761.00385	562.36316	-382.62827	-843.88208	609.1463	-376.39618	-874.45483	210.48462	-577.43219	-970.91522	247.05357	-589.20465
416	2.07	-648.5965	91.567825	-702.92328	-665.49042	95.190002	-647.3598	-495.74017	512.09619	-688.61707	-556.72803	497.35474	-614.75531	-503.54599	987.19769	-750.71942	-798.60675	1043.6099	-582.4588	-767.45795	557.47992	-391.22269	-850.12964	603.17297	-389.9512	-879.07373	207.49608	-589.69818	-975.37335	244.2449	-602.27881
417	2.075	-648.39514	91.464066	-703.19836	-665.4433	95.063698	-647.87286	-495.89362	512.4068	-688.04553	-556.95776	497.52997	-614.50806	-504.87811	987.63763	-750.41333	-801.64825	1041.7358	-584.82336	-774.11963	553.1507	-399.88864	-857.21729	598.74506	-399.37125	-883.68658	204.73952	-601.56647	-979.67041	241.38133	-614.95795
418	2.08	-648.23541	91.456253	-703.43671	-665.77246	94.907188	-647.85223	-496.12665	512.73285	-687.55676	-557.32983	497.7005	-614.34235	-505.63763	988.11548	-749.13965	-804.70642	1039.8101	-587.32117	-780.83405	549.02472	-408.79105	-863.52606	594.95892	-408.19485	-887.85852	201.37173	-613.58435	-983.95526	238.42795	-627.32825
419	2.085	-648.11407	91.407616	-703.65918	-665.94727	95.006271	-647.41595	-496.49542	512.95319	-687.13531	-557.79022	497.91614	-614.21283	-506.69336	988.61786	-748.50653	-807.78711	1037.7986	-589.78369	-787.46808	545.15326	-417.70505	-870.86823	590.14734	-418.4671	-892.20514	198.20737	-624.96759	-988.13446	235.47928	-639.51416
420	2.09	-648.05011	91.328644	-703.86304	-665.62415	94.907394	-648.15106	-496.75916	513.2204	-686.78113	-558.38831	498.10208	-614.13361	-508.54034	988.80884	-747.71375	-811.24274	1035.8798	-592.5578	-793.24414	541.31451	-426.78918	-877.15143	588.29028	-421.72885	-896.57648	195.1701	-636.32697	-992.28094	232.38931	-651.55121
421	2.095	-648.06262	91.166397	-703.99579	-665.76428	94.862915	-648.01178	-497.28098	513.40192	-686.39435	-559.14789	498.22461	-614.12634	-509.5188	989.50574	-746.75098	-814.78601	1033.9114	-595.40295	-799.89691	537.81714	-435.8725	-883.35333	584.4408	-432.51797	-900.51178	192.28558	-647.32202	-995.85382	229.12863	-662.90686
422	2.1	-648.11432	90.944359	-704.1322	-666.06042	94.758377	-647.70398	-497.82925	513.54688	-686.00507	-559.94812	498.38794	-614.14191	-510.01364	990.53479	-746.02917	-818.32172	1032.1354	-598.37927	-806.23712	534.31958	-444.95267	-889.01685	580.46411	-444.78049	-904.05713	189.021	-657.85577	-999.58179	225.76367	-674.38666
